<svg id="Ebene_1" xmlns="http://www.w3.org/2000/svg" viewBox="0 0 165 50" width="165" height="50">
	<style>
		.st0{fill:#E2001A;} .st1{fill:#FFFFFF;}
	</style>
	<g id="Ebene_2">
		<g id="HOME">
			<path class="st0" d="M165 0H0v50h146.8L165 0z"/>
			<path class="st1" d="M54.2 10.1c0-.9-.7-1.7-1.7-1.7h-.1c-1.5 0-2.6 1.3-2.6 2.7 0 .9.7 1.7 1.7 1.7h.1c1.5-.1 2.7-1.3 2.6-2.7zm-1.8 7.1h-3.5l-4.3 20.2h3.5l4.3-20.2zM37.9 29.8l5.4-12.6h2.4l-9 20.2h-2.4l-.8-13.1c-.1-1.6-.2-3.1-.2-4-.4.9-1.1 2.4-1.9 4.1l-6.5 13.1h-2.3l-.3-20.2h2.3v17.1c.4-1 1.2-2.7 2-4.3l6.2-12.7h2.5l.7 12.5c.1 1.7.1 3.3.1 4.3.4-1 1-2.6 1.8-4.4zm-19.1-9.9c-.8-1.4-2.1-1.9-3.7-1.9-2.3 0-4.3 1.4-4.3 3.9 0 1.9 1.2 2.9 3 4.3.5.4 1 .7 1.4 1.1.5.4.9.8 1.3 1.3.9.9 1.3 2.2 1.3 3.4 0 3.6-3.1 5.7-6.3 5.7-2 0-4.1-.6-5.3-2.5l-.1-.2 1.2-.9.1.2c.8 1.5 2.4 2.1 4.1 2.1 2.5 0 4.8-1.6 4.8-4.3 0-1-.3-2-1-2.7-.3-.4-.7-.7-1.1-1-.4-.3-.9-.7-1.4-1.1-1.7-1.3-3.6-2.8-3.6-5.3 0-3.3 2.9-5.3 5.8-5.3 1.9 0 3.8.6 4.9 2.3l.1.2-1 .9-.2-.2zm49.5-1.8c-1.7-.9-3.7-1.4-5.6-1.3-4.8 0-7.6 2.8-7.6 6.7 0 2.7 1.9 4.1 3.6 5.2 1.9 1.3 2.7 2 2.7 3 0 1.6-1.5 2.1-3 2.1s-3-.5-4.2-1.3l-1.8 3.9c1.7 1 4.1 1.3 6.1 1.3 3.9 0 7.8-2.4 7.8-6.9 0-2.9-2.1-4.4-4-5.5-1-.7-2.5-1.5-2.5-2.8 0-.9.7-1.9 2.8-1.9 1.4 0 2.8.4 4 1.2l1.7-3.7zm16.9-.2c-2-.8-4.1-1.2-6.3-1.1-4.9 0-8.4 2.5-8.4 7.3 0 2.5 1.8 3.9 3.4 5 1.6 1.1 2.4 1.5 2.4 2.3 0 1.1-1.1 1.5-2.5 1.5s-2.8-.5-4-1.2l-1.9 4.9c2.1.8 4.3 1.2 6.5 1.1 4.3 0 8.8-2.1 8.8-7.3 0-2.7-2-4.2-3.7-5.2-1.3-.8-2.4-1.4-2.4-2.3 0-.7.6-1.4 2.2-1.4 1.4 0 2.8.4 4 1.2l1.9-4.8zm33.6 19.5l-2.7-7.2-1.2 1.6v5.5h-8.4V9.2h8.4v14.7l4-7h9.9l-6 8.4 6.2 12.2h-10.2zm-31-6c1.4.6 3 .8 4.5.9 1.3 0 2-.5 2-1.2 0-.9-.8-1.2-1.6-1.5l-1.4-.5c-2.2-.7-4.3-2.4-4.3-5.4 0-4.3 3.4-7.3 9.6-7.3 2.2 0 4.4.3 6.5.8l-.9 5.2c-1.5-.5-3-.8-4.6-.8-1.2 0-1.7.4-1.7 1.1 0 .7.6.9 1.3 1.2l1.3.4c2.8.9 5.3 2.2 5.3 5.7 0 5.1-4.2 7.8-10.1 7.8-2.3 0-4.6-.3-6.8-.8l.9-5.6zm48.5-15.9c-2.8 0-4.8-1.4-4.8-3.6 0-1.8 1.5-3.6 4.8-3.6 3 0 4.7 1.5 4.7 3.6-.1 2.3-1.9 3.6-4.7 3.6zm4.5 12.7V16.8h-9.1v20.6h9.1v-6.9h-1.1v2.7h-2.3v-2.7h-2.7v-2.3h2.7v-2.7h2.3v2.7h1.1z"/>
		</g>
	</g>
</svg>
